<mxfile host="app.diagrams.net" agent="Mozilla/5.0 (Macintosh; Intel Mac OS X 10_15_7) AppleWebKit/537.36 (KHTML, like Gecko) Chrome/132.0.0.0 Safari/537.36" version="26.0.15">
  <diagram name="Page-1" id="au125v5e2jPmrpgrDw_g">
    <mxGraphModel dx="1171" dy="860" grid="1" gridSize="10" guides="1" tooltips="1" connect="1" arrows="1" fold="1" page="1" pageScale="1" pageWidth="827" pageHeight="1169" math="0" shadow="0">
      <root>
        <mxCell id="0" />
        <mxCell id="1" parent="0" />
        <mxCell id="43VmNQ_MAS7J2X_KPnHG-1" value="" style="rounded=0;whiteSpace=wrap;html=1;" vertex="1" parent="1">
          <mxGeometry x="90" y="120" width="400" height="200" as="geometry" />
        </mxCell>
        <mxCell id="43VmNQ_MAS7J2X_KPnHG-3" value="&lt;b&gt;Master Node&amp;nbsp;&lt;/b&gt;" style="text;html=1;align=center;verticalAlign=middle;whiteSpace=wrap;rounded=0;" vertex="1" parent="1">
          <mxGeometry x="90" y="120" width="80" height="30" as="geometry" />
        </mxCell>
        <mxCell id="43VmNQ_MAS7J2X_KPnHG-5" value="" style="whiteSpace=wrap;html=1;aspect=fixed;" vertex="1" parent="1">
          <mxGeometry x="600" y="30" width="230" height="230" as="geometry" />
        </mxCell>
        <mxCell id="43VmNQ_MAS7J2X_KPnHG-6" value="" style="whiteSpace=wrap;html=1;aspect=fixed;" vertex="1" parent="1">
          <mxGeometry x="600" y="290" width="230" height="230" as="geometry" />
        </mxCell>
        <mxCell id="43VmNQ_MAS7J2X_KPnHG-7" value="Kubelet" style="html=1;whiteSpace=wrap;" vertex="1" parent="1">
          <mxGeometry x="605" y="70" width="60" height="20" as="geometry" />
        </mxCell>
        <mxCell id="43VmNQ_MAS7J2X_KPnHG-8" value="Kubelet" style="html=1;whiteSpace=wrap;" vertex="1" parent="1">
          <mxGeometry x="605" y="330" width="70" height="20" as="geometry" />
        </mxCell>
        <mxCell id="43VmNQ_MAS7J2X_KPnHG-9" value="" style="rounded=0;whiteSpace=wrap;html=1;" vertex="1" parent="1">
          <mxGeometry x="610" y="130" width="210" height="120" as="geometry" />
        </mxCell>
        <mxCell id="43VmNQ_MAS7J2X_KPnHG-10" value="" style="rounded=0;whiteSpace=wrap;html=1;" vertex="1" parent="1">
          <mxGeometry x="610" y="400" width="210" height="110" as="geometry" />
        </mxCell>
        <mxCell id="43VmNQ_MAS7J2X_KPnHG-11" value="&lt;b&gt;Docker&lt;/b&gt;" style="text;html=1;align=center;verticalAlign=middle;whiteSpace=wrap;rounded=0;" vertex="1" parent="1">
          <mxGeometry x="610" y="130" width="50" height="20" as="geometry" />
        </mxCell>
        <mxCell id="43VmNQ_MAS7J2X_KPnHG-12" value="&lt;b&gt;Docker&lt;/b&gt;" style="text;html=1;align=center;verticalAlign=middle;whiteSpace=wrap;rounded=0;" vertex="1" parent="1">
          <mxGeometry x="610" y="400" width="50" height="20" as="geometry" />
        </mxCell>
        <mxCell id="43VmNQ_MAS7J2X_KPnHG-13" value="Kube-Proxy" style="html=1;whiteSpace=wrap;" vertex="1" parent="1">
          <mxGeometry x="730" y="70" width="70" height="20" as="geometry" />
        </mxCell>
        <mxCell id="43VmNQ_MAS7J2X_KPnHG-16" value="Kube-Proxy" style="html=1;whiteSpace=wrap;" vertex="1" parent="1">
          <mxGeometry x="740" y="320" width="70" height="20" as="geometry" />
        </mxCell>
        <mxCell id="43VmNQ_MAS7J2X_KPnHG-17" value="" style="verticalLabelPosition=bottom;verticalAlign=top;html=1;shape=mxgraph.basic.rect;fillColor2=none;strokeWidth=1;size=20;indent=5;" vertex="1" parent="1">
          <mxGeometry x="620" y="160" width="140" height="80" as="geometry" />
        </mxCell>
        <mxCell id="43VmNQ_MAS7J2X_KPnHG-18" value="" style="strokeWidth=2;html=1;shape=mxgraph.flowchart.multi-document;whiteSpace=wrap;" vertex="1" parent="1">
          <mxGeometry x="660" y="180" width="88" height="60" as="geometry" />
        </mxCell>
        <mxCell id="43VmNQ_MAS7J2X_KPnHG-19" value="&lt;b&gt;POD&lt;/b&gt;" style="text;html=1;align=center;verticalAlign=middle;whiteSpace=wrap;rounded=0;" vertex="1" parent="1">
          <mxGeometry x="622.5" y="160" width="35" height="20" as="geometry" />
        </mxCell>
        <mxCell id="43VmNQ_MAS7J2X_KPnHG-21" value="Container" style="text;html=1;align=center;verticalAlign=middle;whiteSpace=wrap;rounded=0;" vertex="1" parent="1">
          <mxGeometry x="670" y="195" width="60" height="30" as="geometry" />
        </mxCell>
        <mxCell id="43VmNQ_MAS7J2X_KPnHG-22" value="" style="verticalLabelPosition=bottom;verticalAlign=top;html=1;shape=mxgraph.basic.rect;fillColor2=none;strokeWidth=1;size=20;indent=5;" vertex="1" parent="1">
          <mxGeometry x="670" y="420" width="140" height="80" as="geometry" />
        </mxCell>
        <mxCell id="43VmNQ_MAS7J2X_KPnHG-23" value="&lt;b&gt;POD&lt;/b&gt;" style="text;html=1;align=center;verticalAlign=middle;whiteSpace=wrap;rounded=0;" vertex="1" parent="1">
          <mxGeometry x="672.5" y="430" width="35" height="20" as="geometry" />
        </mxCell>
        <mxCell id="43VmNQ_MAS7J2X_KPnHG-24" value="" style="strokeWidth=2;html=1;shape=mxgraph.flowchart.multi-document;whiteSpace=wrap;" vertex="1" parent="1">
          <mxGeometry x="712" y="440" width="88" height="60" as="geometry" />
        </mxCell>
        <mxCell id="43VmNQ_MAS7J2X_KPnHG-25" value="Container" style="text;html=1;align=center;verticalAlign=middle;whiteSpace=wrap;rounded=0;" vertex="1" parent="1">
          <mxGeometry x="720" y="455" width="60" height="30" as="geometry" />
        </mxCell>
        <mxCell id="43VmNQ_MAS7J2X_KPnHG-26" value="&lt;b&gt;Worker Node&lt;/b&gt;" style="text;html=1;align=center;verticalAlign=middle;whiteSpace=wrap;rounded=0;" vertex="1" parent="1">
          <mxGeometry x="600" y="30" width="86.25" height="30" as="geometry" />
        </mxCell>
        <mxCell id="43VmNQ_MAS7J2X_KPnHG-27" value="&lt;b&gt;Worker Node&lt;/b&gt;" style="text;html=1;align=center;verticalAlign=middle;whiteSpace=wrap;rounded=0;" vertex="1" parent="1">
          <mxGeometry x="600" y="290" width="86.25" height="30" as="geometry" />
        </mxCell>
        <mxCell id="43VmNQ_MAS7J2X_KPnHG-32" style="edgeStyle=orthogonalEdgeStyle;rounded=0;orthogonalLoop=1;jettySize=auto;html=1;entryX=1;entryY=0.4;entryDx=0;entryDy=0;entryPerimeter=0;fillColor=#f8cecc;strokeColor=#b85450;" edge="1" parent="1" source="43VmNQ_MAS7J2X_KPnHG-7" target="43VmNQ_MAS7J2X_KPnHG-1">
          <mxGeometry relative="1" as="geometry" />
        </mxCell>
        <mxCell id="43VmNQ_MAS7J2X_KPnHG-33" style="edgeStyle=orthogonalEdgeStyle;rounded=0;orthogonalLoop=1;jettySize=auto;html=1;entryX=1;entryY=0.55;entryDx=0;entryDy=0;entryPerimeter=0;fillColor=#f8cecc;strokeColor=#b85450;" edge="1" parent="1" source="43VmNQ_MAS7J2X_KPnHG-8" target="43VmNQ_MAS7J2X_KPnHG-1">
          <mxGeometry relative="1" as="geometry" />
        </mxCell>
        <mxCell id="43VmNQ_MAS7J2X_KPnHG-35" value="&lt;h1 style=&quot;margin-top: 0px;&quot;&gt;&lt;font style=&quot;font-size: 18px;&quot;&gt;Worker Nodes:&lt;/font&gt;&lt;/h1&gt;&lt;h1 style=&quot;margin-top: 0px;&quot;&gt;&lt;span style=&quot;font-size: 18px; background-color: transparent; color: light-dark(rgb(0, 0, 0), rgb(255, 255, 255)); font-weight: normal;&quot;&gt;Responsible for running application containers. How is this done?&lt;/span&gt;&lt;/h1&gt;&lt;div&gt;&lt;span style=&quot;font-size: 18px;&quot;&gt;&lt;b&gt;pods:&lt;/b&gt;&lt;/span&gt;&lt;/div&gt;&lt;div&gt;&lt;span style=&quot;font-size: 18px;&quot;&gt;A pod is the smallest deployable unit managed by K8s. A pod contains one or more containers that share the same IP address and port.Containers within a Pod can communicate via localhost.&lt;/span&gt;&lt;/div&gt;&lt;div&gt;&lt;span style=&quot;font-size: 18px;&quot;&gt;&lt;b&gt;Kubelet:&lt;/b&gt;&lt;/span&gt;&lt;/div&gt;&lt;div&gt;&lt;span style=&quot;font-size: 18px;&quot;&gt;This is an agent that runs on all worker nodes which gets information from the master node(API server) to decide how the pods will be managed and ran.&lt;/span&gt;&lt;/div&gt;&lt;div&gt;&lt;span style=&quot;font-size: 18px;&quot;&gt;&lt;b&gt;Kube-Proxy:&lt;/b&gt;&lt;/span&gt;&lt;/div&gt;&lt;div&gt;&lt;span style=&quot;font-size: 18px;&quot;&gt;This is a networking component that is used for pod to pod connectivity and making the application accessible to the outside.&lt;/span&gt;&lt;/div&gt;&lt;div&gt;&lt;span style=&quot;font-size: 18px;&quot;&gt;&lt;br&gt;&lt;/span&gt;&lt;/div&gt;" style="text;html=1;whiteSpace=wrap;overflow=hidden;rounded=0;" vertex="1" parent="1">
          <mxGeometry x="80" y="560" width="530" height="360" as="geometry" />
        </mxCell>
      </root>
    </mxGraphModel>
  </diagram>
</mxfile>
